{
    "asset" : {
        "generator" : "Khronos glTF Blender I/O v1.6.16",
        "version" : "2.0"
    },
    "scene" : 0,
    "scenes" : [
        {
            "name" : "Scene",
            "nodes" : [
                0,
                1
            ]
        }
    ],
    "nodes" : [
        {
            "name" : "Empty",
            "rotation" : [
                0.5,
                0.5,
                -0.5,
                0.4999999701976776
            ],
            "translation" : [
                0,
                1.6822235584259033,
                -0.03780277818441391
            ]
        },
        {
            "mesh" : 0,
            "name" : "Cylinder",
            "rotation" : [
                -0.8402860164642334,
                0,
                0,
                0.5421433448791504
            ],
            "scale" : [
                -0.08487582951784134,
                -1.3234013319015503,
                -0.08258519321680069
            ],
            "translation" : [
                0,
                1.864980936050415,
                -0.3554948568344116
            ]
        }
    ],
    "materials" : [
        {
            "doubleSided" : true,
            "name" : "Gold1",
            "pbrMetallicRoughness" : {
                "baseColorFactor" : [
                    0.8000000715255737,
                    0.5180264711380005,
                    0.11114814877510071,
                    1
                ],
                "metallicFactor" : 0.7573529481887817,
                "roughnessFactor" : 0.125
            }
        },
        {
            "doubleSided" : true,
            "name" : "Gold2",
            "pbrMetallicRoughness" : {
                "baseColorFactor" : [
                    0.8000000715255737,
                    0.4276130199432373,
                    0.02044253796339035,
                    1
                ],
                "metallicFactor" : 0.6838235259056091,
                "roughnessFactor" : 0.08088234066963196
            }
        },
        {
            "doubleSided" : true,
            "name" : "WaffeRot",
            "pbrMetallicRoughness" : {
                "baseColorFactor" : [
                    0.8000000715255737,
                    0.027452409267425537,
                    0.03434807434678078,
                    1
                ],
                "metallicFactor" : 0.0882352963089943,
                "roughnessFactor" : 0.5
            }
        },
        {
            "doubleSided" : true,
            "name" : "Silber",
            "pbrMetallicRoughness" : {
                "baseColorFactor" : [
                    0.35883980989456177,
                    0.35883980989456177,
                    0.35883980989456177,
                    1
                ],
                "metallicFactor" : 0.595588207244873,
                "roughnessFactor" : 0
            }
        }
    ],
    "meshes" : [
        {
            "name" : "Cylinder",
            "primitives" : [
                {
                    "attributes" : {
                        "POSITION" : 0,
                        "NORMAL" : 1,
                        "TEXCOORD_0" : 2
                    },
                    "indices" : 3,
                    "material" : 0
                },
                {
                    "attributes" : {
                        "POSITION" : 4,
                        "NORMAL" : 5,
                        "TEXCOORD_0" : 6
                    },
                    "indices" : 7,
                    "material" : 1
                },
                {
                    "attributes" : {
                        "POSITION" : 8,
                        "NORMAL" : 9,
                        "TEXCOORD_0" : 10
                    },
                    "indices" : 11,
                    "material" : 2
                },
                {
                    "attributes" : {
                        "POSITION" : 12,
                        "NORMAL" : 13,
                        "TEXCOORD_0" : 14
                    },
                    "indices" : 15,
                    "material" : 3
                }
            ]
        }
    ],
    "accessors" : [
        {
            "bufferView" : 0,
            "componentType" : 5126,
            "count" : 263,
            "max" : [
                7.546606063842773,
                2.149418354034424,
                7.546595573425293
            ],
            "min" : [
                -7.546595573425293,
                -1.3615442514419556,
                -7.5466084480285645
            ],
            "type" : "VEC3"
        },
        {
            "bufferView" : 1,
            "componentType" : 5126,
            "count" : 263,
            "type" : "VEC3"
        },
        {
            "bufferView" : 2,
            "componentType" : 5126,
            "count" : 263,
            "type" : "VEC2"
        },
        {
            "bufferView" : 3,
            "componentType" : 5123,
            "count" : 1242,
            "type" : "SCALAR"
        },
        {
            "bufferView" : 4,
            "componentType" : 5126,
            "count" : 5728,
            "max" : [
                3.8142964839935303,
                1.1641825437545776,
                9.67577838897705
            ],
            "min" : [
                -8.201316833496094,
                -1.8106040954589844,
                -2.9701197147369385
            ],
            "type" : "VEC3"
        },
        {
            "bufferView" : 5,
            "componentType" : 5126,
            "count" : 5728,
            "type" : "VEC3"
        },
        {
            "bufferView" : 6,
            "componentType" : 5126,
            "count" : 5728,
            "type" : "VEC2"
        },
        {
            "bufferView" : 7,
            "componentType" : 5123,
            "count" : 13044,
            "type" : "SCALAR"
        },
        {
            "bufferView" : 8,
            "componentType" : 5126,
            "count" : 66,
            "max" : [
                1.0000022649765015,
                -1.3215361833572388,
                3.950024127960205
            ],
            "min" : [
                -1.0000011920928955,
                -1.7856605052947998,
                -0.5308086276054382
            ],
            "type" : "VEC3"
        },
        {
            "bufferView" : 9,
            "componentType" : 5126,
            "count" : 66,
            "type" : "VEC3"
        },
        {
            "bufferView" : 10,
            "componentType" : 5126,
            "count" : 66,
            "type" : "VEC2"
        },
        {
            "bufferView" : 11,
            "componentType" : 5123,
            "count" : 192,
            "type" : "SCALAR"
        },
        {
            "bufferView" : 12,
            "componentType" : 5126,
            "count" : 1055,
            "max" : [
                3.40100359916687,
                0.6526067852973938,
                15.6088228225708
            ],
            "min" : [
                -4.319580554962158,
                -1.9603910446166992,
                2.1459174156188965
            ],
            "type" : "VEC3"
        },
        {
            "bufferView" : 13,
            "componentType" : 5126,
            "count" : 1055,
            "type" : "VEC3"
        },
        {
            "bufferView" : 14,
            "componentType" : 5126,
            "count" : 1055,
            "type" : "VEC2"
        },
        {
            "bufferView" : 15,
            "componentType" : 5123,
            "count" : 5850,
            "type" : "SCALAR"
        }
    ],
    "bufferViews" : [
        {
            "buffer" : 0,
            "byteLength" : 3156,
            "byteOffset" : 0
        },
        {
            "buffer" : 0,
            "byteLength" : 3156,
            "byteOffset" : 3156
        },
        {
            "buffer" : 0,
            "byteLength" : 2104,
            "byteOffset" : 6312
        },
        {
            "buffer" : 0,
            "byteLength" : 2484,
            "byteOffset" : 8416
        },
        {
            "buffer" : 0,
            "byteLength" : 68736,
            "byteOffset" : 10900
        },
        {
            "buffer" : 0,
            "byteLength" : 68736,
            "byteOffset" : 79636
        },
        {
            "buffer" : 0,
            "byteLength" : 45824,
            "byteOffset" : 148372
        },
        {
            "buffer" : 0,
            "byteLength" : 26088,
            "byteOffset" : 194196
        },
        {
            "buffer" : 0,
            "byteLength" : 792,
            "byteOffset" : 220284
        },
        {
            "buffer" : 0,
            "byteLength" : 792,
            "byteOffset" : 221076
        },
        {
            "buffer" : 0,
            "byteLength" : 528,
            "byteOffset" : 221868
        },
        {
            "buffer" : 0,
            "byteLength" : 384,
            "byteOffset" : 222396
        },
        {
            "buffer" : 0,
            "byteLength" : 12660,
            "byteOffset" : 222780
        },
        {
            "buffer" : 0,
            "byteLength" : 12660,
            "byteOffset" : 235440
        },
        {
            "buffer" : 0,
            "byteLength" : 8440,
            "byteOffset" : 248100
        },
        {
            "buffer" : 0,
            "byteLength" : 11700,
            "byteOffset" : 256540
        }
    ],
    "buffers" : [
        {
            "byteLength" : 268240,
            "uri" : "data:application/octet-stream;base64,"
        }
    ]
}
